<?xml version="1.0" encoding="UTF-8" standalone="no"?>
<!-- Created with Inkscape (http://www.inkscape.org/) -->

<svg
   width="900mm"
   height="200mm"
   viewBox="0 0 900 200"
   version="1.1"
   id="svg1"
   inkscape:version="1.3.2 (091e20ef0f, 2023-11-25, custom)"
   sodipodi:docname="Typstwriter_Text_Compact_asPath.svg"
   inkscape:export-filename="logo_text.png"
   inkscape:export-xdpi="114.3"
   inkscape:export-ydpi="114.3"
   xmlns:inkscape="http://www.inkscape.org/namespaces/inkscape"
   xmlns:sodipodi="http://sodipodi.sourceforge.net/DTD/sodipodi-0.dtd"
   xmlns:xlink="http://www.w3.org/1999/xlink"
   xmlns="http://www.w3.org/2000/svg"
   xmlns:svg="http://www.w3.org/2000/svg">
  <sodipodi:namedview
     id="namedview1"
     pagecolor="#ffffff"
     bordercolor="#000000"
     borderopacity="0.25"
     inkscape:showpageshadow="2"
     inkscape:pageopacity="0.0"
     inkscape:pagecheckerboard="0"
     inkscape:deskcolor="#d1d1d1"
     inkscape:document-units="mm"
     inkscape:zoom="0.38304225"
     inkscape:cx="1698.2461"
     inkscape:cy="368.10561"
     inkscape:window-width="1920"
     inkscape:window-height="1008"
     inkscape:window-x="1920"
     inkscape:window-y="0"
     inkscape:window-maximized="1"
     inkscape:current-layer="layer1" />
  <defs
     id="defs1">
    <rect
       x="121.00668"
       y="871.24811"
       width="4383.5352"
       height="1821.6509"
       id="rect3" />
    <marker
       style="overflow:visible"
       id="Square-0"
       refX="0"
       refY="0"
       orient="auto"
       inkscape:stockid="Square"
       markerWidth="1"
       markerHeight="0.5"
       viewBox="0 0 1 1"
       inkscape:isstock="true"
       inkscape:collect="always"
       preserveAspectRatio="none">
      <path
         transform="scale(0.5)"
         style="fill:context-stroke;fill-rule:evenodd;stroke:none"
         d="M -5,-5 V 5 H 5 V -5 Z"
         id="path18-5" />
    </marker>
  </defs>
  <g
     inkscape:label="Layer 1"
     inkscape:groupmode="layer"
     id="layer1">
    <g
       id="g3">
      <circle
         style="fill:#96ccd1;fill-opacity:1;stroke:#000000;stroke-width:7.6923;stroke-dasharray:none;stroke-opacity:1"
         id="path2"
         cx="100"
         cy="100"
         r="96.153847" />
      <path
         style="fill:#404040;fill-opacity:1;stroke-width:0.188486"
         d="m 40,102 c 0,0 0.355937,20.62283 0,38 -0.573062,27.97741 119.64604,29.83153 120,0 0.23799,-20.05738 0,-38 0,-38 z"
         id="path1"
         sodipodi:nodetypes="csscc" />
      <rect
         style="fill:#404040;fill-opacity:1;stroke-width:0.206568"
         id="rect1"
         width="120"
         height="20"
         x="40"
         y="80" />
      <rect
         style="fill:#ececec;fill-opacity:1;stroke-width:0.246565"
         id="rect2"
         width="100"
         height="50"
         x="50"
         y="40" />
      <rect
         style="fill:#404040;fill-opacity:1;stroke:#404040;stroke-width:6.17274;stroke-linejoin:round;stroke-miterlimit:3.3;stroke-dasharray:none;stroke-opacity:1;paint-order:normal"
         id="rect4"
         width="3.8272595"
         height="13.827256"
         x="31.08637"
         y="83.086372" />
      <rect
         style="fill:#404040;fill-opacity:1;stroke:#404040;stroke-width:6.17274;stroke-linejoin:round;stroke-miterlimit:3.3;stroke-dasharray:none;stroke-opacity:1;paint-order:normal"
         id="rect4-5"
         width="3.8272595"
         height="13.827256"
         x="165.08636"
         y="83.086372" />
      <path
         style="fill:#757575;fill-opacity:1;stroke:#757575;stroke-width:12;stroke-linejoin:round;stroke-miterlimit:3.3;stroke-dasharray:none;stroke-opacity:1;paint-order:normal"
         d="m 50,120 c 0,0 -0.125916,7.27927 0,18 0.207014,17.62564 100.00758,17.68181 100,0 -0.005,-11.97166 0,-18 0,-18 z"
         id="path4"
         sodipodi:nodetypes="csscc" />
      <circle
         style="fill:#e5e5e5;fill-opacity:1;stroke:none;stroke-width:12.5185;stroke-linejoin:round;stroke-miterlimit:3.3;stroke-dasharray:none;stroke-opacity:1;paint-order:normal"
         id="path6-2-4"
         cx="100"
         cy="120"
         r="4" />
      <circle
         style="fill:#e5e5e5;fill-opacity:1;stroke:none;stroke-width:12.5185;stroke-linejoin:round;stroke-miterlimit:3.3;stroke-dasharray:none;stroke-opacity:1;paint-order:normal"
         id="path6-2-4-55"
         cx="110"
         cy="120"
         r="4" />
      <circle
         style="fill:#e5e5e5;fill-opacity:1;stroke:none;stroke-width:12.5185;stroke-linejoin:round;stroke-miterlimit:3.3;stroke-dasharray:none;stroke-opacity:1;paint-order:normal"
         id="path6-2-4-56"
         cx="120"
         cy="120"
         r="4" />
      <circle
         style="fill:#e5e5e5;fill-opacity:1;stroke:none;stroke-width:12.5185;stroke-linejoin:round;stroke-miterlimit:3.3;stroke-dasharray:none;stroke-opacity:1;paint-order:normal"
         id="path6-2-4-4"
         cx="130"
         cy="120"
         r="4" />
      <circle
         style="fill:#e5e5e5;fill-opacity:1;stroke:none;stroke-width:12.5185;stroke-linejoin:round;stroke-miterlimit:3.3;stroke-dasharray:none;stroke-opacity:1;paint-order:normal"
         id="path6-2-4-47"
         cx="140"
         cy="120"
         r="4" />
      <circle
         style="fill:#e5e5e5;fill-opacity:1;stroke:none;stroke-width:12.5185;stroke-linejoin:round;stroke-miterlimit:3.3;stroke-dasharray:none;stroke-opacity:1;paint-order:normal"
         id="path6-2-4-0"
         cx="150"
         cy="120"
         r="4" />
      <circle
         style="fill:#e5e5e5;fill-opacity:1;stroke:none;stroke-width:12.5185;stroke-linejoin:round;stroke-miterlimit:3.3;stroke-dasharray:none;stroke-opacity:1;paint-order:normal"
         id="path6-2-4-55-8"
         cx="50"
         cy="120"
         r="4" />
      <circle
         style="fill:#e5e5e5;fill-opacity:1;stroke:none;stroke-width:12.5185;stroke-linejoin:round;stroke-miterlimit:3.3;stroke-dasharray:none;stroke-opacity:1;paint-order:normal"
         id="path6-2-4-56-8"
         cx="60"
         cy="120"
         r="4" />
      <circle
         style="fill:#e5e5e5;fill-opacity:1;stroke:none;stroke-width:12.5185;stroke-linejoin:round;stroke-miterlimit:3.3;stroke-dasharray:none;stroke-opacity:1;paint-order:normal"
         id="path6-2-4-4-4"
         cx="70"
         cy="120"
         r="4" />
      <circle
         style="fill:#e5e5e5;fill-opacity:1;stroke:none;stroke-width:12.5185;stroke-linejoin:round;stroke-miterlimit:3.3;stroke-dasharray:none;stroke-opacity:1;paint-order:normal"
         id="path6-2-4-47-3"
         cx="80"
         cy="120"
         r="4" />
      <circle
         style="fill:#e5e5e5;fill-opacity:1;stroke:none;stroke-width:12.5185;stroke-linejoin:round;stroke-miterlimit:3.3;stroke-dasharray:none;stroke-opacity:1;paint-order:normal"
         id="path6-2-4-0-1"
         cx="90"
         cy="120"
         r="4" />
      <circle
         style="fill:#e5e5e5;fill-opacity:1;stroke:none;stroke-width:12.5185;stroke-linejoin:round;stroke-miterlimit:3.3;stroke-dasharray:none;stroke-opacity:1;paint-order:normal"
         id="path6-2-4-06"
         cx="99.999985"
         cy="130"
         r="4" />
      <circle
         style="fill:#e5e5e5;fill-opacity:1;stroke:none;stroke-width:12.5185;stroke-linejoin:round;stroke-miterlimit:3.3;stroke-dasharray:none;stroke-opacity:1;paint-order:normal"
         id="path6-2-4-55-89"
         cx="109.99998"
         cy="130"
         r="4" />
      <circle
         style="fill:#e5e5e5;fill-opacity:1;stroke:none;stroke-width:12.5185;stroke-linejoin:round;stroke-miterlimit:3.3;stroke-dasharray:none;stroke-opacity:1;paint-order:normal"
         id="path6-2-4-56-2"
         cx="119.99998"
         cy="130"
         r="4" />
      <circle
         style="fill:#e5e5e5;fill-opacity:1;stroke:none;stroke-width:12.5185;stroke-linejoin:round;stroke-miterlimit:3.3;stroke-dasharray:none;stroke-opacity:1;paint-order:normal"
         id="path6-2-4-4-6"
         cx="130"
         cy="130"
         r="4" />
      <circle
         style="fill:#e5e5e5;fill-opacity:1;stroke:none;stroke-width:12.5185;stroke-linejoin:round;stroke-miterlimit:3.3;stroke-dasharray:none;stroke-opacity:1;paint-order:normal"
         id="path6-2-4-47-6"
         cx="140"
         cy="130"
         r="4" />
      <circle
         style="fill:#e5e5e5;fill-opacity:1;stroke:none;stroke-width:12.5185;stroke-linejoin:round;stroke-miterlimit:3.3;stroke-dasharray:none;stroke-opacity:1;paint-order:normal"
         id="path6-2-4-0-4"
         cx="150"
         cy="130"
         r="4" />
      <circle
         style="fill:#e5e5e5;fill-opacity:1;stroke:none;stroke-width:12.5185;stroke-linejoin:round;stroke-miterlimit:3.3;stroke-dasharray:none;stroke-opacity:1;paint-order:normal"
         id="path6-2-4-55-8-9"
         cx="50"
         cy="130"
         r="4" />
      <circle
         style="fill:#e5e5e5;fill-opacity:1;stroke:none;stroke-width:12.5185;stroke-linejoin:round;stroke-miterlimit:3.3;stroke-dasharray:none;stroke-opacity:1;paint-order:normal"
         id="path6-2-4-56-8-5"
         cx="60"
         cy="130"
         r="4" />
      <circle
         style="fill:#e5e5e5;fill-opacity:1;stroke:none;stroke-width:12.5185;stroke-linejoin:round;stroke-miterlimit:3.3;stroke-dasharray:none;stroke-opacity:1;paint-order:normal"
         id="path6-2-4-4-4-0"
         cx="70"
         cy="130"
         r="4" />
      <circle
         style="fill:#e5e5e5;fill-opacity:1;stroke:none;stroke-width:12.5185;stroke-linejoin:round;stroke-miterlimit:3.3;stroke-dasharray:none;stroke-opacity:1;paint-order:normal"
         id="path6-2-4-47-3-4"
         cx="79.999985"
         cy="130"
         r="4" />
      <circle
         style="fill:#e5e5e5;fill-opacity:1;stroke:none;stroke-width:12.5185;stroke-linejoin:round;stroke-miterlimit:3.3;stroke-dasharray:none;stroke-opacity:1;paint-order:normal"
         id="path6-2-4-0-1-8"
         cx="89.999985"
         cy="130"
         r="4" />
      <circle
         style="fill:#e5e5e5;fill-opacity:1;stroke:none;stroke-width:12.5185;stroke-linejoin:round;stroke-miterlimit:3.3;stroke-dasharray:none;stroke-opacity:1;paint-order:normal"
         id="path6-2-4-06-2"
         cx="99.999977"
         cy="140"
         r="4" />
      <circle
         style="fill:#e5e5e5;fill-opacity:1;stroke:none;stroke-width:12.5185;stroke-linejoin:round;stroke-miterlimit:3.3;stroke-dasharray:none;stroke-opacity:1;paint-order:normal"
         id="path6-2-4-55-89-7"
         cx="109.99998"
         cy="140"
         r="4" />
      <circle
         style="fill:#e5e5e5;fill-opacity:1;stroke:none;stroke-width:12.5185;stroke-linejoin:round;stroke-miterlimit:3.3;stroke-dasharray:none;stroke-opacity:1;paint-order:normal"
         id="path6-2-4-56-2-2"
         cx="119.99998"
         cy="140"
         r="4" />
      <circle
         style="fill:#e5e5e5;fill-opacity:1;stroke:none;stroke-width:12.5185;stroke-linejoin:round;stroke-miterlimit:3.3;stroke-dasharray:none;stroke-opacity:1;paint-order:normal"
         id="path6-2-4-4-6-2"
         cx="130"
         cy="140"
         r="4" />
      <circle
         style="fill:#e5e5e5;fill-opacity:1;stroke:none;stroke-width:12.5185;stroke-linejoin:round;stroke-miterlimit:3.3;stroke-dasharray:none;stroke-opacity:1;paint-order:normal"
         id="path6-2-4-47-6-6"
         cx="140"
         cy="140"
         r="4" />
      <circle
         style="fill:#e5e5e5;fill-opacity:1;stroke:none;stroke-width:12.5185;stroke-linejoin:round;stroke-miterlimit:3.3;stroke-dasharray:none;stroke-opacity:1;paint-order:normal"
         id="path6-2-4-0-4-1"
         cx="150"
         cy="140"
         r="4" />
      <circle
         style="fill:#e5e5e5;fill-opacity:1;stroke:none;stroke-width:12.5185;stroke-linejoin:round;stroke-miterlimit:3.3;stroke-dasharray:none;stroke-opacity:1;paint-order:normal"
         id="path6-2-4-55-8-9-0"
         cx="50"
         cy="140"
         r="4" />
      <circle
         style="fill:#e5e5e5;fill-opacity:1;stroke:none;stroke-width:12.5185;stroke-linejoin:round;stroke-miterlimit:3.3;stroke-dasharray:none;stroke-opacity:1;paint-order:normal"
         id="path6-2-4-56-8-5-6"
         cx="59.999996"
         cy="140"
         r="4" />
      <circle
         style="fill:#e5e5e5;fill-opacity:1;stroke:none;stroke-width:12.5185;stroke-linejoin:round;stroke-miterlimit:3.3;stroke-dasharray:none;stroke-opacity:1;paint-order:normal"
         id="path6-2-4-4-4-0-1"
         cx="70"
         cy="140"
         r="4" />
      <circle
         style="fill:#e5e5e5;fill-opacity:1;stroke:none;stroke-width:12.5185;stroke-linejoin:round;stroke-miterlimit:3.3;stroke-dasharray:none;stroke-opacity:1;paint-order:normal"
         id="path6-2-4-47-3-4-5"
         cx="79.999985"
         cy="140"
         r="4" />
      <circle
         style="fill:#e5e5e5;fill-opacity:1;stroke:none;stroke-width:12.5185;stroke-linejoin:round;stroke-miterlimit:3.3;stroke-dasharray:none;stroke-opacity:1;paint-order:normal"
         id="path6-2-4-0-1-8-9"
         cx="89.999985"
         cy="140"
         r="4" />
      <path
         style="fill:#757575;fill-opacity:1;stroke:#757575;stroke-width:10;stroke-linejoin:round;stroke-miterlimit:3.3;stroke-dasharray:none;stroke-opacity:1;paint-order:normal"
         d="m 85,95 -5,10 c 0,0 1.78251,2.92462 20,3 17.72065,0.0733 20,-3 20,-3 l -5,-10 z"
         id="path5"
         sodipodi:nodetypes="ccsccc" />
      <rect
         style="fill:#e5e5e5;fill-opacity:1;stroke:#e5e5e5;stroke-width:6.95614;stroke-linejoin:round;stroke-miterlimit:3.3;stroke-dasharray:none;stroke-opacity:1;paint-order:normal"
         id="rect6"
         width="41.043861"
         height="1.0438732"
         x="79.478065"
         y="149.47807" />
      <rect
         style="fill:#757575;fill-opacity:1;stroke:none;stroke-width:0.0596312"
         id="rect1-9"
         width="100"
         height="2"
         x="50"
         y="82" />
      <path
         style="fill:none;fill-opacity:1;stroke:#e5e5e5;stroke-width:1;stroke-linejoin:round;stroke-miterlimit:3.3;stroke-dasharray:none;stroke-opacity:1;marker-end:url(#Square-0);paint-order:normal"
         d="M 99.95833,92.749998 V 108.75"
         id="path8-64"
         sodipodi:nodetypes="cc"
         inkscape:tile-cx="99.958329"
         inkscape:tile-cy="100.75"
         inkscape:tile-w="2.5"
         inkscape:tile-h="18.500002"
         inkscape:tile-x0="98.708329"
         inkscape:tile-y0="92.749997" />
      <use
         x="0"
         y="0"
         inkscape:tiled-clone-of="#path8-64"
         xlink:href="#path8-64"
         transform="rotate(-3,100.1486,52.986676)"
         id="use1242" />
      <use
         x="0"
         y="0"
         inkscape:tiled-clone-of="#path8-64"
         xlink:href="#path8-64"
         transform="rotate(-6,100.34032,52.936158)"
         id="use1243" />
      <use
         x="0"
         y="0"
         inkscape:tiled-clone-of="#path8-64"
         xlink:href="#path8-64"
         transform="rotate(-9,100.53495,52.851982)"
         id="use1244" />
      <use
         x="0"
         y="0"
         inkscape:tiled-clone-of="#path8-64"
         xlink:href="#path8-64"
         transform="rotate(-12,100.73395,52.734178)"
         id="use1245" />
      <use
         x="0"
         y="0"
         inkscape:tiled-clone-of="#path8-64"
         xlink:href="#path8-64"
         transform="rotate(-15,100.93877,52.582787)"
         id="use1246" />
      <use
         x="0"
         y="0"
         inkscape:tiled-clone-of="#path8-64"
         xlink:href="#path8-64"
         transform="rotate(-18,101.15089,52.397864)"
         id="use1247" />
      <use
         x="0"
         y="0"
         inkscape:tiled-clone-of="#path8-64"
         xlink:href="#path8-64"
         transform="rotate(-21,101.37177,52.179475)"
         id="use1248" />
      <path
         style="fill:none;fill-opacity:1;stroke:#e5e5e5;stroke-width:1;stroke-linejoin:round;stroke-miterlimit:3.3;stroke-dasharray:none;stroke-opacity:1;marker-end:url(#Square-0);paint-order:normal"
         d="M 97.889729,92.705463 97.052354,108.68354"
         id="use1322"
         sodipodi:nodetypes="cc"
         inkscape:tile-x0="98.707999"
         inkscape:tile-y0="92.749997" />
      <path
         style="fill:none;fill-opacity:1;stroke:#e5e5e5;stroke-width:1;stroke-linejoin:round;stroke-miterlimit:3.3;stroke-dasharray:none;stroke-opacity:1;marker-end:url(#Square-0);paint-order:normal"
         d="M 95.807265,92.571833 94.13481,108.48419"
         id="use1323"
         sodipodi:nodetypes="cc"
         inkscape:tile-x0="98.707999"
         inkscape:tile-y0="92.749997" />
      <path
         style="fill:none;fill-opacity:1;stroke:#e5e5e5;stroke-width:1;stroke-linejoin:round;stroke-miterlimit:3.3;stroke-dasharray:none;stroke-opacity:1;marker-end:url(#Square-0);paint-order:normal"
         d="M 93.722512,92.349 91.21956,108.15202"
         id="use1324"
         sodipodi:nodetypes="cc"
         inkscape:tile-x0="98.707999"
         inkscape:tile-y0="92.749997" />
      <path
         style="fill:none;fill-opacity:1;stroke:#e5e5e5;stroke-width:1;stroke-linejoin:round;stroke-miterlimit:3.3;stroke-dasharray:none;stroke-opacity:1;marker-end:url(#Square-0);paint-order:normal"
         d="M 91.634333,92.036825 88.307746,107.68719"
         id="use1325"
         sodipodi:nodetypes="cc"
         inkscape:tile-x0="98.707999"
         inkscape:tile-y0="92.749997" />
      <path
         style="fill:none;fill-opacity:1;stroke:#e5e5e5;stroke-width:1;stroke-linejoin:round;stroke-miterlimit:3.3;stroke-dasharray:none;stroke-opacity:1;marker-end:url(#Square-0);paint-order:normal"
         d="M 89.54159,91.635098 85.400484,107.08991"
         id="use1326"
         sodipodi:nodetypes="cc"
         inkscape:tile-x0="98.707999"
         inkscape:tile-y0="92.749997" />
      <path
         style="fill:none;fill-opacity:1;stroke:#e5e5e5;stroke-width:1;stroke-linejoin:round;stroke-miterlimit:3.3;stroke-dasharray:none;stroke-opacity:1;marker-end:url(#Square-0);paint-order:normal"
         d="M 87.443177,91.143556 82.498905,106.36046"
         id="use1327"
         sodipodi:nodetypes="cc"
         inkscape:tile-x0="98.707999"
         inkscape:tile-y0="92.749997" />
      <path
         style="fill:none;fill-opacity:1;stroke:#e5e5e5;stroke-width:1;stroke-linejoin:round;stroke-miterlimit:3.3;stroke-dasharray:none;stroke-opacity:1;marker-end:url(#Square-0);paint-order:normal"
         d="M 85.337981,90.561853 79.604093,105.49914"
         id="use1328"
         sodipodi:nodetypes="cc"
         inkscape:tile-x0="98.707999"
         inkscape:tile-y0="92.749997" />
    </g>
    <path
       style="font-size:533.333px;font-family:Crimson;-inkscape-font-specification:Crimson;white-space:pre;shape-padding:25.93;stroke:#000000;stroke-width:3.77953;stroke-linejoin:round;stroke-miterlimit:3.3"
       d="m 153.33554,1080.436 c 1.6,1.6 5.33333,4.2666 10.13333,3.7333 2.66667,0 6.4,-1.0667 7.46666,-2.6667 7.46666,-37.3333 24.53332,-65.0666 51.19997,-65.0666 h 68.79996 v 271.9998 c 0,16 0,30.9333 -2.66667,39.4667 -1.6,5.8666 -30.39998,8.5333 -36.79997,8.5333 -2.13334,2.6667 -2.66667,12.8 0,15.4667 21.86665,-1.0667 42.1333,-2.6667 62.93329,-2.6667 20.79999,0 40.53331,1.6 62.39996,2.6667 2.66667,-2.6667 2.13334,-12.8 0,-15.4667 -6.39999,0 -35.19998,-2.6667 -36.79997,-8.5333 -2.66667,-8.5334 -2.66667,-23.4667 -2.66667,-39.4667 V 1016.436 h 67.73329 c 26.66665,0 43.73331,27.7333 51.19997,65.0666 1.06667,1.6 4.8,2.6667 7.46666,2.6667 4.8,0.5333 8.53333,-2.1333 10.13333,-3.7333 -5.86666,-28.2667 -10.13333,-59.2 -13.86666,-91.73332 -3.2,-1.6 -4.79999,-1.6 -10.13332,1.06666 -6.4,3.2 -23.46666,8 -31.99999,8 h -208.5332 c -8.53333,0 -23.46665,-4.26666 -29.86665,-7.46666 -3.2,-1.6 -9.06666,-3.2 -12.26666,-1.6 -3.73333,32.53332 -7.99999,63.46662 -13.86666,91.73332 z m 328.53285,55.9999 c 6.4,0 23.46666,-0.5333 28.79999,10.6667 31.46664,68.2666 54.39996,125.8666 84.26661,202.1332 -1.6,5.8667 -17.06666,42.6666 -25.59998,53.8666 -21.33332,28.8 -35.73331,30.4 -60.79997,30.4 -2.66666,3.2 -6.39999,9.0667 -6.39999,15.4667 0,19.2 13.33332,22.9333 23.46665,22.9333 17.59999,0 34.13331,-11.7333 46.39997,-29.8667 19.19999,-28.2666 28.79998,-62.3999 42.13331,-94.9332 30.93331,-75.7333 48.5333,-117.3333 79.99995,-192.5333 6.4,-14.9333 29.86665,-18.1333 34.13331,-18.1333 2.13333,0 3.2,-12.2666 1.06667,-15.4666 -10.66666,1.0666 -24.53332,2.6666 -44.79997,2.6666 -21.86666,0 -39.99998,-1.6 -47.99997,-2.6666 -2.66667,2.6666 -2.66667,15.4666 0,15.4666 18.13332,0 30.93331,6.4 30.93331,17.0667 0,3.7333 -0.53333,10.6666 -3.2,17.0666 -20.26665,50.1333 -46.9333,121.0666 -46.9333,121.0666 l -56.5333,-143.9999 c -0.53333,-1.0667 -1.06667,-1.6 -1.06667,-2.1333 0,-8 22.93332,-9.0667 26.66665,-9.0667 2.66667,0 3.2,-12.2666 2.13333,-15.4666 -9.06666,1.0666 -33.06664,2.6666 -53.3333,2.6666 -21.86665,0 -43.19997,-1.6 -53.3333,-2.6666 -1.06666,1.0666 -1.06666,15.4666 0,15.4666 z m 257.59975,15.4667 c 3.73333,0 30.93332,0.5333 34.66665,9.6 2.66666,6.4 2.66666,20.8 2.66666,27.7333 v 218.1332 c 0,16 0,30.9333 -2.66666,39.4666 -1.6,5.8667 -27.19999,8.5334 -33.59998,8.5334 -2.13333,2.6666 -2.66667,12.8 0,15.4666 21.86665,-1.0666 35.73331,-2.6666 56.5333,-2.6666 20.79998,0 35.19998,1.6 57.06663,2.6666 2.66666,-2.6666 2.13333,-12.8 0,-15.4666 -6.4,0 -31.99998,-2.6667 -33.59998,-8.5334 -2.66667,-8.5333 -2.66667,-23.4666 -2.66667,-39.4666 v -51.7333 c 0,-4.2667 2.13334,-6.9333 2.13334,-6.9333 8.53332,2.6666 23.46665,5.8666 37.33331,5.8666 60.26663,0 124.79992,-59.1999 124.79992,-127.9999 0,-45.8666 -30.39998,-109.8666 -96.53327,-109.8666 -21.33332,0 -51.73331,19.2 -65.06663,30.4 -0.53333,0.5333 -1.06667,1.0666 -1.6,1.0666 -1.06667,0 -1.06667,-1.6 -1.06667,-2.1333 0,-4.2666 3.2,-18.1333 3.73334,-21.8666 0,-2.6667 -3.2,-8.5334 -5.86667,-8.5334 -21.33332,11.2 -49.06663,18.6667 -76.26662,22.4 -2.13333,2.6667 -1.06666,12.8 0,13.8667 z m 78.39995,145.0666 v -128 c 0,-7.4666 22.93332,-20.8 44.79998,-20.8 40.53331,0 74.66662,34.6667 74.66662,98.1333 0,43.2 -25.59999,89.6 -69.86663,89.6 -18.66665,0 -49.59997,-11.2 -49.59997,-38.9333 z m 206.93341,-6.4 c 0,13.8666 4.8,44.2666 9.0666,55.4666 23.4667,4.2667 37.8667,10.1333 62.4,10.1333 43.2,0 82.1333,-30.4 82.1333,-73.5999 0,-29.3333 -27.7333,-46.4 -61.3333,-65.0667 -29.8667,-16.5333 -46.4,-25.5999 -46.4,-50.1333 0,-19.2 12.2667,-33.5999 37.8667,-33.5999 22.9333,0 39.4666,29.3333 44.7999,49.0666 2.6667,2.1333 6.4,2.6667 9.0667,2.6667 2.6666,0 5.3333,-0.5334 5.3333,-2.6667 -0.5333,-19.2 -2.6667,-42.1333 -6.4,-58.6666 -23.4666,-2.6667 -33.6,-6.9334 -54.3999,-6.9334 -39.4667,0 -77.3333,25.6 -77.3333,65.0667 0,34.1333 25.5999,50.1333 62.3999,69.3333 22.9333,11.7333 43.2,24.5333 43.2,49.0666 0,24.5333 -16.5333,38.4 -38.4,38.4 -28.2666,0 -51.1999,-28.2667 -57.5999,-50.6667 -1.6,-1.0666 -3.2,-1.0666 -4.8,-1.0666 -2.6667,0 -7.4667,1.6 -9.6,3.2 z m 185.5995,-153.5999 c 0,1.6 1.0667,4.8 2.6667,4.8 h 30.9333 v 154.6665 c 0,45.8667 28.2667,57.6 55.4666,57.6 26.1334,0 47.4667,-20.8 54.9333,-29.3333 0.5334,-0.5334 2.1334,-4.8 2.1334,-8 0,-1.6 -0.5334,-3.2 -1.6,-3.7334 -3.7334,2.6667 -18.6667,12.2667 -34.6667,12.2667 -23.4666,0 -35.1999,-15.4667 -35.1999,-43.7333 v -139.7332 h 63.9999 c 4.8,-4.8 7.4667,-11.2 7.4667,-16 0,-3.2 0,-5.8667 -2.6667,-5.8667 h -68.7999 v -69.8666 c 0,-2.1334 -5.8667,-2.1334 -8.5334,0.5333 -1.0666,1.6 -22.4,24 -32.5333,35.7333 v 33.6 h -19.7333 c -0.5333,0.5333 -13.8667,14.9333 -13.8667,17.0667 z m 156.2671,-0.5334 c 6.4,0 24,0.5334 28.8,11.7333 35.2,79.4667 53.3333,123.2 86.3999,205.8666 0.5334,1.0667 2.6667,2.1333 4.8,2.1333 5.8667,0 12.8,-8.5333 13.3334,-10.1333 l 57.5999,-146.1333 59.2,154.1333 c 0.5333,1.0667 3.2,2.1333 6.4,2.1333 3.2,0 9.6,-4.8 11.2,-9.0666 30.9333,-74.1333 47.9999,-117.3333 77.3333,-191.4666 6.4,-16 31.9999,-19.2 36.2666,-19.2 3.2,-2.6666 2.1333,-13.8666 1.6,-15.4666 -21.3333,1.0666 -28.8,2.6666 -49.0666,2.6666 -21.8667,0 -24.5333,-1.6 -46.4,-2.6666 -2.6667,2.6666 -2.1333,13.8666 0,15.4666 12.2667,1.0667 32,2.1334 32,17.6 0,2.1333 -0.5334,6.9333 -2.6667,12.8 -8,22.4 -26.1333,67.7333 -46.9333,119.4666 -29.3333,-75.7333 -44.2666,-112.5333 -48.5333,-126.9333 -1.0667,-2.6666 -1.6,-4.2666 -1.6,-5.8666 0,-12.8 10.1333,-17.0667 26.6667,-17.0667 2.1333,-2.1333 1.6,-12.2666 0.5333,-15.4666 -21.3333,1.0666 -35.2,2.6666 -55.4666,2.6666 -21.8667,0 -26.6667,-1.6 -48.5333,-2.6666 -2.6667,2.6666 -2.6667,13.8666 0,15.4666 6.3999,0 17.5999,1.6 23.4666,10.1333 6.9333,10.1334 12.8,25.6 12.8,29.3334 0,4.8 -16,43.1999 -43.2,111.9999 -29.8666,-70.4 -48.5333,-114.1333 -54.9333,-131.1999 -1.6,-4.8 -2.6666,-7.4667 -2.6666,-8 0,-11.2 22.3999,-12.2667 26.6666,-12.2667 2.1333,-1.0666 2.1333,-12.2666 1.0667,-15.4666 -21.3333,1.0666 -33.0667,2.6666 -53.3333,2.6666 -21.8667,0 -30.9333,-1.6 -52.8,-2.6666 -1.6,3.2 -1.6,12.2666 0,15.4666 z m 401.6001,15.4667 c 3.7333,0 30.9333,0.5333 34.6667,9.6 2.6666,6.4 2.6666,20.8 2.6666,27.7333 v 99.1999 c 0,16 0,30.9333 -2.6666,39.4667 -1.6,5.8666 -27.2,8.5333 -33.6,8.5333 -2.1334,2.6667 -2.6667,12.8 0,15.4667 21.8666,-1.0667 38.9333,-2.6667 59.7333,-2.6667 20.8,0 44.2666,1.6 66.1333,2.6667 2.6666,-2.6667 2.1333,-12.8 0,-15.4667 -6.4,0 -44.2667,-2.6667 -45.8667,-8.5333 -2.6666,-8.5334 -2.6666,-23.4667 -2.6666,-39.4667 v -82.1333 c 0,-12.2666 19.7333,-47.9999 42.6666,-47.9999 10.6667,0 17.0667,4.2666 23.4667,9.0666 5.3333,4.2667 10.1333,7.4667 15.9999,7.4667 5.3334,0 17.6,-8 17.6,-27.7333 0,-5.8667 -1.0666,-11.2 -2.1333,-14.4 -4.8,-8.5333 -18.6667,-15.4667 -32.5333,-15.4667 -24,0 -52.2666,34.1333 -62.9333,57.0667 -0.5333,0.5333 -2.1333,1.0666 -2.1333,-1.0667 0,-5.8667 3.2,-45.3333 3.7333,-49.0666 0,-2.6667 -3.2,-8.5334 -5.8667,-8.5334 -21.3333,11.2 -49.0666,18.6667 -76.2666,22.4 -2.1333,2.6667 -1.0667,12.8 0,13.8667 z m 204.2662,0 c 3.7334,0 30.9334,0.5333 34.6667,9.6 2.6667,6.4 2.6667,20.8 2.6667,27.7333 v 99.1999 c 0,16 0,30.9333 -2.6667,39.4667 -1.6,5.8666 -27.2,8.5333 -33.6,8.5333 -2.1333,2.6667 -2.6667,12.8 0,15.4667 21.8667,-1.0667 35.7333,-2.6667 56.5333,-2.6667 20.8,0 35.2,1.6 57.0666,2.6667 2.6667,-2.6667 2.1334,-12.8 0,-15.4667 -6.4,0 -31.9999,-2.6667 -33.5999,-8.5333 -2.6667,-8.5334 -2.6667,-23.4667 -2.6667,-39.4667 v -129.0666 c 0,-5.3333 3.2,-31.4666 3.7333,-35.1999 0,-2.6667 -3.2,-8.5334 -5.8666,-8.5334 -21.3334,11.2 -49.0667,18.6667 -76.2667,22.4 -2.1333,2.6667 -1.0666,12.8 0,13.8667 z m 27.2,-126.3999 c 0,14.9333 11.7334,26.6666 26.6667,26.6666 14.9333,0 26.6666,-11.7333 26.6666,-26.6666 0,-14.9334 -11.7333,-26.66669 -26.6666,-26.66669 -14.9333,0 -26.6667,11.73329 -26.6667,26.66669 z m 109.3335,111.4666 c 0,1.6 1.0667,4.8 2.6667,4.8 h 30.9333 v 154.6665 c 0,45.8667 28.2666,57.6 55.4666,57.6 26.1333,0 47.4667,-20.8 54.9333,-29.3333 0.5334,-0.5334 2.1333,-4.8 2.1333,-8 0,-1.6 -0.5333,-3.2 -1.5999,-3.7334 -3.7334,2.6667 -18.6667,12.2667 -34.6667,12.2667 -23.4666,0 -35.2,-15.4667 -35.2,-43.7333 v -139.7332 h 64 c 4.8,-4.8 7.4666,-11.2 7.4666,-16 0,-3.2 0,-5.8667 -2.6666,-5.8667 h -68.8 v -69.8666 c 0,-2.1334 -5.8666,-2.1334 -8.5333,0.5333 -1.0667,1.6 -22.4,24 -32.5333,35.7333 v 33.6 h -19.7333 c -0.5334,0.5333 -13.8667,14.9333 -13.8667,17.0667 z m 176.5337,106.6666 c 0,62.9333 43.7333,110.9332 106.6666,110.9332 41.6,0 68.2667,-29.8666 77.8667,-45.3333 1.6,-2.6666 3.1999,-6.9333 3.1999,-9.6 0,-4.2666 -3.7333,-7.4666 -4.2666,-7.4666 -6.9333,8 -29.3333,28.2666 -58.6666,28.2666 -45.8667,0 -86.9333,-33.0666 -86.9333,-98.6666 v -3.7333 c 6.4,0 117.8666,-2.6667 134.3999,-3.7334 10.1333,-0.5333 12.8,-9.6 12.8,-25.0666 0,-21.3333 -16,-72.5333 -80,-72.5333 -46.9333,0 -105.0666,55.4666 -105.0666,126.9333 z m 40.5333,-45.3333 c -1.0666,0 10.6667,-62.4 55.4667,-62.4 32.5333,0 43.7333,34.6666 43.7333,50.1333 0,9.6 -5.8667,12.2667 -12.2667,12.2667 z m 185.6,-46.4 c 3.7333,0 30.9333,0.5333 34.6666,9.6 2.6667,6.4 2.6667,20.8 2.6667,27.7333 v 99.1999 c 0,16 0,30.9333 -2.6667,39.4667 -1.6,5.8666 -27.2,8.5333 -33.5999,8.5333 -2.1334,2.6667 -2.6667,12.8 0,15.4667 21.8666,-1.0667 38.9333,-2.6667 59.7332,-2.6667 20.8,0 44.2667,1.6 66.1333,2.6667 2.6667,-2.6667 2.1334,-12.8 0,-15.4667 -6.4,0 -44.2666,-2.6667 -45.8666,-8.5333 -2.6667,-8.5334 -2.6667,-23.4667 -2.6667,-39.4667 v -82.1333 c 0,-12.2666 19.7334,-47.9999 42.6667,-47.9999 10.6666,0 17.0666,4.2666 23.4666,9.0666 5.3334,4.2667 10.1334,7.4667 16,7.4667 5.3334,0 17.6,-8 17.6,-27.7333 0,-5.8667 -1.0667,-11.2 -2.1333,-14.4 -4.8,-8.5333 -18.6667,-15.4667 -32.5333,-15.4667 -24,0 -52.2667,34.1333 -62.9333,57.0667 -0.5334,0.5333 -2.1334,1.0666 -2.1334,-1.0667 0,-5.8667 3.2,-45.3333 3.7334,-49.0666 0,-2.6667 -3.2,-8.5334 -5.8667,-8.5334 -21.3333,11.2 -49.0666,18.6667 -76.2666,22.4 -2.1333,2.6667 -1.0667,12.8 0,13.8667 z"
       id="text1"
       transform="matrix(0.26458333,0,0,0.26458333,169.92997,-225.80534)"
       aria-label="Typstwriter" />
  </g>
</svg>
