<?xml version="1.0" encoding="UTF-8" standalone="no"?>
<svg
   id="Laag_1"
   x="0"
   y="0"
   version="1.1"
   viewBox="29 20.3 64 64"
   xml:space="preserve"
   sodipodi:docname="pdf.svg"
   width="64"
   height="64"
   inkscape:version="1.3.2 (091e20ef0f, 2023-11-25, custom)"
   xmlns:inkscape="http://www.inkscape.org/namespaces/inkscape"
   xmlns:sodipodi="http://sodipodi.sourceforge.net/DTD/sodipodi-0.dtd"
   xmlns="http://www.w3.org/2000/svg"
   xmlns:svg="http://www.w3.org/2000/svg"><defs
   id="defs4"><rect
     x="1.0447761"
     y="21.243782"
     width="65.12438"
     height="36.218906"
     id="rect7" /><rect
     x="0"
     y="4.7014927"
     width="80.099504"
     height="47.798509"
     id="rect6" /></defs><sodipodi:namedview
   id="namedview4"
   pagecolor="#ffffff"
   bordercolor="#000000"
   borderopacity="0.25"
   inkscape:showpageshadow="2"
   inkscape:pageopacity="0.0"
   inkscape:pagecheckerboard="0"
   inkscape:deskcolor="#d1d1d1"
   inkscape:zoom="11.485714"
   inkscape:cx="34.956469"
   inkscape:cy="35.000001"
   inkscape:window-width="1920"
   inkscape:window-height="1008"
   inkscape:window-x="1920"
   inkscape:window-y="0"
   inkscape:window-maximized="1"
   inkscape:current-layer="Laag_1" />
    <style
   id="style1">
        .st3{fill:#000}.st4{fill:none}
    </style>
    
    
    <path
   d="m -98.54,113.85 h -15.3 m 70.83,-20.49 h -5.96"
   class="st4"
   id="path3" />
    <path
   d="m 73.405318,61.922744 c -1.968006,-0.0384 -3.772812,-0.6528 -5.481617,-1.5936 -1.017602,-0.5664 -1.948806,-1.2576 -2.793608,-2.0544 a 0.39648115,0.39648 0 0 0 -0.412801,-0.1152 c -2.793608,0.5568 -5.539217,1.2576 -8.217624,2.2272 a 0.73920215,0.7392 0 0 0 -0.345602,0.2688 c -0.825601,1.2288 -1.612804,2.4768 -2.457606,3.6864 -0.988803,1.4112 -2.083206,2.736 -3.44641,3.8208 -1.008004,0.7968 -2.140806,1.296 -3.45601,1.2768 -0.556802,-0.0096 -1.065604,-0.1536 -1.507205,-0.5184 -0.758402,-0.6336 -0.950402,-1.5264 -0.528001,-2.4096 0.374401,-0.7872 0.988802,-1.3824 1.651205,-1.92 1.324803,-1.0848 2.822407,-1.9008 4.348812,-2.6592 0.960003,-0.48 1.920006,-0.9504 2.880009,-1.44 0.1152,-0.0576 0.2208,-0.1632 0.2784,-0.2784 1.660805,-3.5328 3.17761,-7.1232 4.502414,-10.7904 0.048,-0.1344 0.0288,-0.3072 -0.0096,-0.4416 -0.355202,-1.1424 -0.777603,-2.2752 -1.075204,-3.4368 -0.4032,-1.5552 -0.547201,-3.1488 -0.4512,-4.752 0.0192,-0.3648 0.0768,-0.7392 0.1728,-1.0944 0.3552,-1.248 1.593605,-1.8336 2.832008,-1.3248 0.969603,0.3936 1.497604,1.1712 1.766405,2.1504 0.316801,1.1424 0.297601,2.3136 0.182401,3.4848 -0.201601,2.1792 -0.844803,4.2528 -1.382404,6.3552 -0.048,0.1728 -0.0192,0.3072 0.0672,0.4608 1.113602,1.9776 2.534406,3.7152 3.945609,5.472 0.153601,0.192 0.326401,0.3648 0.451203,0.5664 0.192,0.336 0.451201,0.3552 0.796802,0.3072 1.881605,-0.2688 3.763211,-0.5376 5.664016,-0.4992 1.180803,0.0192 2.361608,0.1152 3.46561,0.576 0.393602,0.1632 0.787202,0.3936 1.113602,0.672 0.662409,0.5568 0.912009,1.3056 0.796809,2.1504 -0.1056,0.8064 -0.662409,1.2576 -1.372809,1.536 -0.633602,0.2496 -1.296004,0.3264 -1.977604,0.3168 z m -9.052828,-4.5312 c -1.603204,-1.872 -3.091208,-3.792 -4.416012,-5.8944 -0.883203,2.7072 -1.958406,5.28 -3.091209,7.8912 2.467207,-0.8736 4.953614,-1.5072 7.507221,-1.9968 z m 1.536005,0.48 c -0.0096,0.0288 -0.0192,0.048 -0.0192,0.0768 0.0768,0.048 0.1536,0.1056 0.2208,0.1536 1.468805,1.0944 3.12961,1.8144 4.848015,2.4 0.624002,0.2112 1.257603,0.4032 1.929606,0.384 0.758402,-0.0192 1.430403,-0.528 1.593604,-1.2 0.1632,-0.72 -0.192001,-1.4016 -0.912002,-1.776 -0.595202,-0.3072 -1.228805,-0.4128 -1.891206,-0.4512 a 18.844855,18.8448 0 0 0 -3.36961,0.1152 c -0.806402,0.1056 -1.603204,0.2016 -2.400007,0.2976 z m -12.969637,3.9456 a 0.41760121,0.4176 0 0 1 -0.0576,-0.0672 l -0.2016,0.0864 c -0.758402,0.384 -1.516805,0.7584 -2.275207,1.1424 -1.200004,0.6048 -2.361606,1.2576 -3.42721,2.0832 -0.547201,0.432 -1.075203,0.8832 -1.440005,1.488 -0.192,0.3168 -0.3264,0.6432 -0.24,1.0272 0.1632,0.7008 0.835203,1.0656 1.564805,0.8256 0.604801,-0.2016 1.161604,-0.5184 1.641605,-0.9504 1.075202,-0.96 1.977605,-2.0736 2.822408,-3.2448 0.547202,-0.7776 1.065603,-1.5936 1.612804,-2.3904 z m 5.932817,-13.8816 c 0.048,-0.096 0.0672,-0.1152 0.0768,-0.144 0.633601,-2.0544 1.132802,-4.1376 1.267203,-6.2976 0.0384,-0.5568 0.0192,-1.1232 -0.192001,-1.6512 -0.182401,-0.4416 -0.547202,-0.6816 -1.008002,-0.7392 -0.422401,-0.048 -0.720003,0.2016 -0.931204,0.5376 -0.1248,0.192 -0.220801,0.4128 -0.288001,0.6336 -0.2496,0.7968 -0.2208,1.6128 -0.1344,2.4288 0.1536,1.6128 0.508801,3.1872 1.046404,4.7136 z"
   class="st3"
   id="path4"
   style="stroke:#000000;stroke-width:1.2;stroke-dasharray:none;stroke-opacity:1" />
<path
   style="fill:none;stroke:#000000;stroke-width:4;stroke-linecap:round;stroke-linejoin:round;stroke-miterlimit:3.3;stroke-dasharray:none"
   d="m 39,24.3 v 56 h 44 v -40 H 67 v -16 z"
   id="path2"
   sodipodi:nodetypes="ccccccc" /><path
   style="fill:none;stroke:#000000;stroke-width:4;stroke-linecap:round;stroke-linejoin:round;stroke-miterlimit:3.3;stroke-dasharray:none"
   d="m 67,24.3 16,16"
   id="path6"
   sodipodi:nodetypes="cc" /></svg>
